<?xml version="1.0" standalone="no"?>
<!DOCTYPE svg PUBLIC "-//W3C//DTD SVG 20010904//EN"
 "http://www.w3.org/TR/2001/REC-SVG-20010904/DTD/svg10.dtd">
<svg version="1.0" xmlns="http://www.w3.org/2000/svg"
 width="512.000000pt" height="512.000000pt" viewBox="0 0 512.000000 512.000000"
 preserveAspectRatio="xMidYMid meet">
<metadata>
Created by potrace 1.14, written by Peter Selinger 2001-2017
</metadata>
<g transform="translate(0.000000,512.000000) scale(0.100000,-0.100000)"
fill="#000000" stroke="none">
<path d="M1460 5112 c-38 -17 -63 -40 -81 -74 -18 -35 -19 -63 -19 -442 0
-464 1 -468 75 -511 l42 -25 466 0 467 0 0 530 0 530 -467 -1 c-258 0 -475 -4
-483 -7z"/>
<path d="M2710 4590 l0 -530 525 0 525 0 0 530 0 530 -525 0 -525 0 0 -530z"/>
<path d="M4060 4590 l0 -530 470 0 c415 0 475 2 503 16 86 44 87 48 87 521 0
380 -1 406 -19 442 -41 79 -16 76 -558 79 l-483 3 0 -531z"/>
<path d="M85 3743 c-38 -20 -49 -32 -69 -70 -14 -28 -16 -82 -16 -434 0 -389
1 -404 21 -446 14 -30 33 -50 60 -63 36 -19 61 -20 509 -20 l470 0 0 525 0
525 -472 0 c-415 -1 -477 -3 -503 -17z"/>
<path d="M1360 3235 l0 -525 465 0 c447 0 467 1 505 20 26 13 47 34 60 60 19
37 20 58 20 446 0 402 0 407 -22 446 -45 79 -36 78 -563 78 l-465 0 0 -525z"/>
<path d="M1448 2392 c-20 -9 -47 -30 -60 -47 l-23 -29 -3 -416 c-3 -460 -3
-463 62 -511 l31 -24 478 -3 477 -3 0 526 0 525 -462 0 c-417 0 -467 -2 -500
-18z"/>
<path d="M2710 1885 l0 -525 525 0 525 0 0 525 0 525 -525 0 -525 0 0 -525z"/>
<path d="M4060 1885 l0 -525 465 0 c514 0 523 1 568 64 22 31 22 35 25 448 3
374 1 421 -14 450 -9 18 -24 40 -33 48 -41 39 -59 40 -541 40 l-470 0 0 -525z"/>
<path d="M78 1039 c-23 -12 -46 -35 -58 -59 -19 -37 -20 -58 -20 -444 0 -449
1 -461 63 -507 l32 -24 483 -3 482 -3 0 531 0 530 -472 0 c-451 -1 -475 -2
-510 -21z"/>
<path d="M1360 530 l0 -530 525 0 525 0 0 530 0 530 -525 0 -525 0 0 -530z"/>
<path d="M2710 530 l0 -530 468 0 c515 1 503 -1 554 65 l23 29 3 423 c3 409 2
424 -18 463 -13 26 -34 47 -60 60 -38 19 -58 20 -505 20 l-465 0 0 -530z"/>
</g>
</svg>
